<svg width="928" height="204" viewBox="0 0 928 204" fill="none" xmlns="http://www.w3.org/2000/svg">
<path d="M44.336 136.496C49.712 136.496 54.472 135.544 58.616 133.64C62.648 131.624 66.064 129.72 68.864 127.928C71.664 126.136 73.792 124.904 75.248 124.232C76.704 123.56 77.432 124.568 77.432 127.256C77.432 129.944 76.2 132.296 73.736 134.312C71.272 136.216 68.416 137.784 65.168 139.016C61.92 140.248 58.672 141.2 55.424 141.872C52.064 142.432 49.544 142.712 47.864 142.712C42.376 142.712 36.832 141.816 31.232 140.024C25.52 138.232 20.424 135.544 15.944 131.96C11.352 128.264 7.656 123.728 4.856 118.352C1.944 112.976 0.487999 106.76 0.487999 99.704C0.487999 93.544 2.168 87.16 5.52799 80.552C8.776 73.944 13.368 67.504 19.304 61.232C25.128 54.96 32.128 49.024 40.304 43.424C48.368 37.824 57.216 32.952 66.848 28.808C76.368 24.664 86.504 21.36 97.256 18.896C108.008 16.432 118.928 15.2 130.016 15.2C134.272 15.2 138.752 15.76 143.456 16.88C148.16 18 152.472 19.792 156.392 22.256C160.312 24.72 163.56 27.912 166.136 31.832C168.712 35.752 170 40.512 170 46.112C170 49.808 169.048 54.232 167.144 59.384C165.24 64.424 162.72 69.856 159.584 75.68C156.448 81.504 152.864 87.552 148.832 93.824C144.912 99.984 140.824 106.144 136.568 112.304C132.424 118.352 128.336 124.176 124.304 129.776C120.384 135.264 116.856 140.248 113.72 144.728C110.584 149.208 108.064 152.96 106.16 155.984C104.256 159.008 103.304 160.968 103.304 161.864C104.424 160.968 106.328 159.176 109.016 156.488C111.704 153.8 114.84 150.552 118.424 146.744C122.008 142.824 125.928 138.568 130.184 133.976C134.552 129.384 138.864 124.736 143.12 120.032C153.2 109.056 164.232 96.904 176.216 83.576C176.216 81.56 176.664 80.328 177.56 79.88C178.456 79.432 179.52 79.544 180.752 80.216C182.096 80.888 183.552 82.008 185.12 83.576C186.688 85.032 188.088 86.712 189.32 88.616C190.664 90.408 191.784 92.312 192.68 94.328C193.576 96.232 194.024 98.024 194.024 99.704C194.024 101.384 193.352 103.848 192.008 107.096C190.664 110.232 188.984 113.872 186.968 118.016C184.952 122.048 182.712 126.416 180.248 131.12C177.896 135.824 175.712 140.472 173.696 145.064C171.68 149.656 170 154.024 168.656 158.168C167.312 162.312 166.64 165.952 166.64 169.088C169.776 166.288 173.36 162.76 177.392 158.504C181.536 154.248 185.792 149.488 190.16 144.224C194.528 138.848 198.784 133.08 202.928 126.92C207.184 120.648 210.992 114.264 214.352 107.768C217.712 101.272 220.4 94.72 222.416 88.112C224.432 81.392 225.44 74.84 225.44 68.456C225.44 63.864 224.88 59.72 223.76 56.024C222.752 52.216 221.408 49.024 219.728 46.448C218.16 43.76 216.424 41.744 214.52 40.4C212.616 38.944 210.88 38.216 209.312 38.216C207.744 38.216 206.4 37.936 205.28 37.376C204.272 36.704 203.712 36.032 203.6 35.36C203.488 34.576 203.936 33.904 204.944 33.344C206.064 32.672 207.968 32.336 210.656 32.336C213.344 32.336 216.76 33.232 220.904 35.024C225.048 36.704 229.08 39.392 233 43.088C237.032 46.784 240.448 51.488 243.248 57.2C246.16 62.8 247.616 69.52 247.616 77.36C247.616 81.28 246.384 85.872 243.92 91.136C241.456 96.4 238.152 101.944 234.008 107.768C229.976 113.592 225.328 119.584 220.064 125.744C214.912 131.904 209.592 137.952 204.104 143.888C198.616 149.712 193.184 155.2 187.808 160.352C182.544 165.504 177.784 170.04 173.528 173.96C169.384 177.88 165.968 180.96 163.28 183.2C160.592 185.44 159.08 186.56 158.744 186.56C158.184 186.56 157.12 186.336 155.552 185.888C153.984 185.44 152.36 184.432 150.68 182.864C149.112 181.296 147.656 179.056 146.312 176.144C145.08 173.12 144.464 169.144 144.464 164.216C144.464 161.752 144.8 158.952 145.472 155.816C146.256 152.68 147.264 149.432 148.496 146.072C149.84 142.712 151.296 139.296 152.864 135.824C154.432 132.24 156.056 128.768 157.736 125.408C161.544 117.568 165.968 109.56 171.008 101.384C160.48 111.688 150.904 121.712 142.28 131.456C133.656 141.088 126.152 149.656 119.768 157.16C112.376 166.008 105.768 174.296 99.944 182.024C99.944 184.264 98.88 185.552 96.752 185.888C94.624 186.336 92.272 185.944 89.696 184.712C87.232 183.592 84.936 181.688 82.808 179C80.68 176.312 79.616 173.008 79.616 169.088C79.616 165.056 81.52 159.68 85.328 152.96C89.024 146.128 93.672 138.68 99.272 130.616C104.984 122.44 111.088 113.984 117.584 105.248C124.192 96.4 130.296 87.888 135.896 79.712C141.608 71.424 146.312 63.864 150.008 57.032C153.816 50.088 155.72 44.432 155.72 40.064C155.72 38.048 155.16 35.976 154.04 33.848C153.032 31.72 151.464 29.816 149.336 28.136C147.32 26.344 144.744 24.944 141.608 23.936C138.584 22.816 135.112 22.256 131.192 22.256C122.232 22.256 113.272 23.712 104.312 26.624C95.352 29.424 86.784 33.232 78.608 38.048C70.32 42.864 62.592 48.464 55.424 54.848C48.256 61.12 42.04 67.728 36.776 74.672C31.512 81.504 27.368 88.448 24.344 95.504C21.32 102.448 19.808 109 19.808 115.16C19.808 119.528 20.648 123.112 22.328 125.912C24.008 128.6 26.136 130.728 28.712 132.296C31.176 133.864 33.864 134.984 36.776 135.656C39.576 136.216 42.096 136.496 44.336 136.496ZM311.767 120.368C312.439 119.472 313.167 118.912 313.951 118.688C314.735 118.352 315.407 118.352 315.967 118.688C316.639 119.024 316.975 119.64 316.975 120.536C317.087 121.432 316.695 122.552 315.799 123.896C315.239 124.792 313.727 126.808 311.263 129.944C308.799 132.968 305.719 136.552 302.023 140.696C298.327 144.728 294.239 149.04 289.759 153.632C285.279 158.112 280.687 162.256 275.983 166.064C271.391 169.76 266.855 172.84 262.375 175.304C258.007 177.768 254.031 179 250.447 179C247.423 178.776 244.735 177.88 242.383 176.312C240.367 174.968 238.519 172.952 236.839 170.264C235.159 167.464 234.319 163.432 234.319 158.168C234.319 153.128 235.327 148.088 237.343 143.048C239.359 137.896 241.935 133.024 245.071 128.432C248.319 123.728 251.903 119.36 255.823 115.328C259.743 111.296 263.551 107.768 267.247 104.744C271.055 101.72 274.583 99.368 277.831 97.688C281.079 96.008 283.655 95.168 285.559 95.168C286.679 95.168 287.911 95.448 289.255 96.008C290.599 96.456 291.831 97.352 292.951 98.696C294.183 100.04 295.191 101.944 295.975 104.408C296.871 106.872 297.319 110.12 297.319 114.152C297.319 116.84 296.423 119.808 294.631 123.056C292.839 126.192 290.543 129.384 287.743 132.632C284.943 135.768 281.807 138.848 278.335 141.872C274.975 144.896 271.615 147.584 268.255 149.936C265.007 152.288 261.983 154.192 259.183 155.648C256.495 156.992 254.423 157.664 252.967 157.664C251.959 159.792 251.287 161.696 250.951 163.376C250.727 164.832 250.839 166.12 251.287 167.24C251.847 168.36 253.247 168.92 255.487 168.92C258.287 168.92 262.095 167.464 266.911 164.552C271.727 161.528 276.823 157.72 282.199 153.128C287.687 148.424 293.063 143.216 298.327 137.504C303.591 131.68 308.071 125.968 311.767 120.368ZM283.879 116C283.207 116 282.255 116.504 281.023 117.512C279.791 118.52 278.447 119.864 276.991 121.544C275.647 123.224 274.135 125.128 272.455 127.256C270.887 129.384 269.319 131.512 267.751 133.64C264.055 138.904 260.079 144.784 255.823 151.28C261.535 147.92 266.463 144.224 270.607 140.192C274.751 136.048 278.055 132.184 280.519 128.6C282.983 125.016 284.495 122.048 285.055 119.696C285.615 117.232 285.223 116 283.879 116ZM318.058 179C314.922 179 312.402 178.328 310.498 176.984C308.594 175.528 307.082 173.792 305.962 171.776C304.954 169.76 304.282 167.576 303.946 165.224C303.61 162.76 303.442 160.52 303.442 158.504C303.442 156.152 304.282 152.792 305.962 148.424C307.754 144.056 310.05 139.072 312.85 133.472C315.762 127.872 319.01 121.824 322.594 115.328C326.29 108.72 330.042 102.056 333.85 95.336C337.658 88.616 341.354 82.008 344.938 75.512C348.634 68.904 351.882 62.8 354.682 57.2C357.594 51.6 359.89 46.672 361.57 42.416C363.362 38.048 364.258 34.744 364.258 32.504C364.258 31.272 365.098 30.712 366.778 30.824C368.458 30.936 370.306 31.776 372.322 33.344C374.338 34.8 376.186 36.984 377.866 39.896C379.546 42.696 380.386 46.224 380.386 50.48C380.386 52.608 379.322 55.968 377.194 60.56C375.178 65.04 372.49 70.304 369.13 76.352C365.77 82.288 362.018 88.784 357.874 95.84C353.73 102.784 349.586 109.728 345.442 116.672C341.41 123.616 337.546 130.336 333.85 136.832C330.266 143.216 327.298 148.928 324.946 153.968C322.706 158.896 321.306 162.872 320.746 165.896C320.298 168.808 321.082 170.264 323.098 170.264C324.33 170.264 326.794 168.64 330.49 165.392C334.186 162.144 338.386 158.056 343.09 153.128C347.794 148.088 352.61 142.6 357.538 136.664C362.578 130.616 366.946 124.792 370.642 119.192C371.202 118.296 371.874 117.736 372.658 117.512C373.554 117.176 374.282 117.176 374.842 117.512C375.402 117.848 375.682 118.464 375.682 119.36C375.794 120.256 375.402 121.376 374.506 122.72C373.946 123.616 372.49 125.632 370.138 128.768C367.898 131.904 365.098 135.544 361.738 139.688C358.378 143.832 354.682 148.256 350.65 152.96C346.618 157.552 342.586 161.808 338.554 165.728C334.634 169.536 330.882 172.728 327.298 175.304C323.714 177.768 320.634 179 318.058 179ZM385.257 179C381.001 179 377.417 178.272 374.505 176.816C371.705 175.36 369.409 173.344 367.617 170.768C365.937 168.192 364.705 165.224 363.921 161.864C363.137 158.504 362.745 154.864 362.745 150.944C362.745 148.368 363.473 145.176 364.929 141.368C366.385 137.56 368.289 133.584 370.641 129.44C372.993 125.296 375.625 121.152 378.537 117.008C381.561 112.864 384.585 109.168 387.609 105.92C390.745 102.56 393.769 99.872 396.681 97.856C399.593 95.728 402.169 94.664 404.409 94.664C405.641 94.664 406.649 95 407.433 95.672C408.329 96.344 409.057 97.072 409.617 97.856C410.177 98.752 410.625 99.76 410.961 100.88C410.961 100.544 411.353 99.984 412.137 99.2C412.921 98.416 413.761 97.576 414.657 96.68C415.553 95.784 416.393 94.888 417.177 93.992C417.961 92.984 418.353 92.032 418.353 91.136C418.353 90.352 418.689 90.072 419.361 90.296C420.145 90.52 420.985 91.248 421.881 92.48C422.889 93.712 423.729 95.448 424.401 97.688C425.185 99.928 425.577 102.728 425.577 106.088C425.577 110.792 424.961 114.264 423.729 116.504C422.609 118.744 421.321 120.704 419.865 122.384C418.409 123.952 417.065 125.744 415.833 127.76C414.713 129.776 414.153 132.912 414.153 137.168C411.129 137.168 408.721 136.216 406.929 134.312C405.137 132.296 403.793 130.112 402.897 127.76C401.777 124.96 401.049 121.824 400.713 118.352C397.017 122.272 393.713 126.472 390.801 130.952C388.337 134.872 386.097 139.296 384.081 144.224C382.065 149.152 381.057 154.304 381.057 159.68C381.057 163.6 382.009 166.344 383.913 167.912C385.817 169.48 387.889 170.264 390.129 170.264C391.025 170.264 392.537 169.536 394.665 168.08C396.793 166.512 399.257 164.496 402.057 162.032C404.969 159.456 408.105 156.488 411.465 153.128C414.937 149.768 418.353 146.184 421.713 142.376C425.185 138.568 428.489 134.704 431.625 130.784C434.873 126.752 437.729 122.888 440.193 119.192C440.865 118.296 441.593 117.736 442.377 117.512C443.161 117.176 443.833 117.176 444.393 117.512C445.065 117.848 445.401 118.464 445.401 119.36C445.513 120.256 445.121 121.376 444.225 122.72C443.665 123.616 442.153 125.632 439.689 128.768C437.225 131.904 434.201 135.544 430.617 139.688C427.145 143.832 423.281 148.256 419.025 152.96C414.881 157.552 410.681 161.808 406.425 165.728C402.281 169.536 398.361 172.728 394.665 175.304C390.969 177.768 387.833 179 385.257 179ZM491.292 158.84C490.06 158.84 488.884 158.616 487.764 158.168C486.756 157.72 485.916 157.216 485.244 156.656C484.572 157.552 483.956 158.28 483.396 158.84C483.172 158.952 482.948 159.176 482.724 159.512C482.5 159.736 482.22 160.016 481.884 160.352C481.66 160.688 481.38 161.08 481.044 161.528C477.012 165.784 472.644 169.536 467.94 172.784C463.236 176.032 458.532 177.992 453.828 178.664C453.716 178.776 453.548 178.832 453.324 178.832C452.876 178.832 452.596 178.888 452.484 179H450.804C449.124 179 447.22 178.72 445.092 178.16C443.076 177.6 441.116 176.592 439.212 175.136C437.42 173.568 435.908 171.44 434.676 168.752C433.444 165.952 432.828 162.312 432.828 157.832C432.828 152.792 433.612 147.752 435.18 142.712C436.86 137.672 439.044 132.856 441.732 128.264C444.532 123.672 447.668 119.36 451.14 115.328C454.724 111.296 458.364 107.824 462.06 104.912C465.868 101.888 469.62 99.536 473.316 97.856C477.012 96.176 480.372 95.336 483.396 95.336C488.1 95.336 492.132 96.68 495.492 99.368C498.852 101.944 501.596 105.024 503.724 108.608C504.06 109.168 503.724 109.896 502.716 110.792C501.708 111.688 499.3 112.136 495.492 112.136C490.9 112.136 486.308 113.648 481.716 116.672C477.124 119.584 472.868 123.28 468.948 127.76C465.028 132.128 461.556 136.888 458.532 142.04C455.62 147.192 453.38 152.008 451.812 156.488C450.244 160.856 449.516 164.552 449.628 167.576C449.852 170.488 451.196 171.944 453.66 171.944C456.124 171.944 458.98 170.936 462.228 168.92C465.476 166.904 468.556 164.608 471.468 162.032C474.94 159.12 478.412 155.816 481.884 152.12C481.548 151.336 481.268 150.384 481.044 149.264C480.82 148.368 480.652 147.304 480.54 146.072C480.428 144.84 480.372 143.44 480.372 141.872C480.372 138.512 481.212 135.656 482.892 133.304C484.684 130.952 486.588 129.44 488.604 128.768C490.732 127.984 492.636 128.208 494.316 129.44C496.108 130.56 497.004 132.856 497.004 136.328C497.004 137.896 496.276 139.968 494.82 142.544C493.364 145.12 491.292 148.2 488.604 151.784C488.828 152.008 489.276 152.288 489.948 152.624C490.732 152.848 491.348 152.96 491.796 152.96C493.812 152.96 495.828 152.232 497.844 150.776C499.86 149.208 502.044 147.024 504.396 144.224C506.748 141.312 509.268 137.84 511.956 133.808C514.756 129.664 517.836 125.016 521.196 119.864C521.756 118.968 522.428 118.408 523.212 118.184C524.108 117.848 524.836 117.848 525.396 118.184C525.956 118.52 526.236 119.136 526.236 120.032C526.348 120.928 525.956 122.048 525.06 123.392C524.5 124.288 523.604 125.8 522.372 127.928C521.252 129.944 519.796 132.24 518.004 134.816C516.324 137.392 514.42 140.136 512.292 143.048C510.164 145.848 507.924 148.424 505.572 150.776C503.332 153.128 500.98 155.088 498.516 156.656C496.052 158.112 493.644 158.84 491.292 158.84ZM598.556 179C595.308 179 592.62 177.264 590.492 173.792C588.364 170.208 587.3 165.224 587.3 158.84C587.3 157.048 587.692 154.976 588.476 152.624C589.26 150.272 590.268 147.808 591.5 145.232C592.844 142.544 594.356 139.856 596.036 137.168C597.716 134.368 599.452 131.624 601.244 128.936C605.276 122.776 609.924 116.28 615.188 109.448C614.516 109.448 612.556 110.68 609.308 113.144C606.172 115.496 602.476 118.464 598.22 122.048C594.076 125.52 589.876 129.328 585.62 133.472C581.476 137.616 578.06 141.424 575.372 144.896C573.58 147.584 571.676 150.664 569.66 154.136C567.644 157.608 565.74 160.968 563.948 164.216C562.268 167.352 560.868 170.208 559.748 172.784C558.628 175.36 558.068 177.04 558.068 177.824C558.068 178.944 557.564 179.224 556.556 178.664C555.548 178.104 554.372 176.928 553.028 175.136C551.796 173.344 550.676 171.104 549.668 168.416C548.66 165.728 548.156 162.76 548.156 159.512C548.156 157.72 548.548 155.648 549.332 153.296C550.116 150.944 551.124 148.424 552.356 145.736C553.7 143.048 555.212 140.304 556.892 137.504C558.572 134.704 560.308 131.96 562.1 129.272C566.244 123 570.948 116.392 576.212 109.448C575.316 109.448 573.244 110.96 569.996 113.984C566.86 117.008 563.164 120.816 558.908 125.408C554.652 130 550.172 135.096 545.468 140.696C540.764 146.184 536.396 151.448 532.364 156.488C528.444 161.528 525.196 166.008 522.62 169.928C520.044 173.848 518.756 176.48 518.756 177.824C518.756 178.944 518.14 179.336 516.908 179C515.788 178.776 514.5 177.936 513.044 176.48C511.588 174.912 510.244 172.896 509.012 170.432C507.892 167.856 507.332 164.888 507.332 161.528C507.332 159.288 508.172 156.432 509.852 152.96C511.532 149.488 513.604 145.792 516.068 141.872C518.532 137.84 521.22 133.64 524.132 129.272C527.156 124.904 529.9 120.648 532.364 116.504C534.828 112.248 536.9 108.272 538.58 104.576C540.26 100.768 541.1 97.464 541.1 94.664C541.1 93.208 541.716 92.536 542.948 92.648C544.18 92.648 545.524 93.376 546.98 94.832C548.548 96.288 549.948 98.472 551.18 101.384C552.524 104.296 553.196 107.88 553.196 112.136C553.196 114.152 552.804 116.28 552.02 118.52C551.236 120.648 550.396 122.608 549.5 124.4C548.38 126.416 547.204 128.432 545.972 130.448C552.468 123.84 558.404 117.904 563.78 112.64C566.132 110.4 568.428 108.216 570.668 106.088C573.02 103.96 575.204 102.056 577.22 100.376C579.236 98.696 580.972 97.352 582.428 96.344C583.996 95.224 585.116 94.664 585.788 94.664C587.244 94.664 588.644 95.168 589.988 96.176C591.332 97.072 592.508 98.36 593.516 100.04C594.524 101.608 595.308 103.4 595.868 105.416C596.428 107.432 596.708 109.448 596.708 111.464C596.708 112.584 596.26 114.04 595.364 115.832C594.58 117.624 593.516 119.696 592.172 122.048C594.188 120.032 596.82 117.456 600.068 114.32C603.316 111.184 606.564 108.16 609.812 105.248C613.06 102.336 616.084 99.872 618.884 97.856C621.684 95.728 623.644 94.664 624.764 94.664C626.22 94.664 627.508 95.168 628.628 96.176C629.748 97.072 630.7 98.36 631.484 100.04C632.38 101.608 633.052 103.4 633.5 105.416C633.948 107.432 634.172 109.448 634.172 111.464C634.172 112.808 633.164 115.272 631.148 118.856C629.244 122.328 626.836 126.304 623.924 130.784C621.012 135.264 617.932 139.912 614.684 144.728C611.548 149.544 608.748 153.968 606.284 158C603.82 162.032 602.028 165.336 600.908 167.912C599.788 170.488 599.844 171.776 601.076 171.776C602.98 171.776 605.948 170.096 609.98 166.736C614.012 163.376 618.436 159.12 623.252 153.968C628.18 148.704 633.164 142.992 638.204 136.832C643.244 130.672 647.612 124.792 651.308 119.192C651.868 118.296 652.54 117.736 653.324 117.512C654.22 117.176 654.948 117.176 655.508 117.512C656.068 117.848 656.348 118.464 656.348 119.36C656.46 120.256 656.068 121.376 655.172 122.72C654.612 123.616 653.212 125.632 650.972 128.768C648.844 131.904 646.156 135.544 642.908 139.688C639.772 143.832 636.244 148.256 632.324 152.96C628.516 157.552 624.596 161.808 620.564 165.728C616.644 169.536 612.724 172.728 608.804 175.304C604.996 177.768 601.58 179 598.556 179ZM718.806 120.368C719.478 119.472 720.206 118.912 720.99 118.688C721.774 118.352 722.446 118.352 723.006 118.688C723.678 119.024 724.014 119.64 724.014 120.536C724.126 121.432 723.734 122.552 722.838 123.896C722.278 124.792 720.766 126.808 718.302 129.944C715.838 132.968 712.758 136.552 709.062 140.696C705.366 144.728 701.278 149.04 696.798 153.632C692.318 158.112 687.726 162.256 683.022 166.064C678.43 169.76 673.894 172.84 669.414 175.304C665.046 177.768 661.07 179 657.486 179C654.462 178.776 651.774 177.88 649.422 176.312C647.406 174.968 645.558 172.952 643.878 170.264C642.198 167.464 641.358 163.432 641.358 158.168C641.358 153.128 642.366 148.088 644.382 143.048C646.398 137.896 648.974 133.024 652.11 128.432C655.358 123.728 658.942 119.36 662.862 115.328C666.782 111.296 670.59 107.768 674.286 104.744C678.094 101.72 681.622 99.368 684.87 97.688C688.118 96.008 690.694 95.168 692.598 95.168C693.718 95.168 694.95 95.448 696.294 96.008C697.638 96.456 698.87 97.352 699.99 98.696C701.222 100.04 702.23 101.944 703.014 104.408C703.91 106.872 704.358 110.12 704.358 114.152C704.358 116.84 703.462 119.808 701.67 123.056C699.878 126.192 697.582 129.384 694.782 132.632C691.982 135.768 688.846 138.848 685.374 141.872C682.014 144.896 678.654 147.584 675.294 149.936C672.046 152.288 669.022 154.192 666.222 155.648C663.534 156.992 661.462 157.664 660.006 157.664C658.998 159.792 658.326 161.696 657.99 163.376C657.766 164.832 657.878 166.12 658.326 167.24C658.886 168.36 660.286 168.92 662.526 168.92C665.326 168.92 669.134 167.464 673.95 164.552C678.766 161.528 683.862 157.72 689.238 153.128C694.726 148.424 700.102 143.216 705.366 137.504C710.63 131.68 715.11 125.968 718.806 120.368ZM690.918 116C690.246 116 689.294 116.504 688.062 117.512C686.83 118.52 685.486 119.864 684.03 121.544C682.686 123.224 681.174 125.128 679.494 127.256C677.926 129.384 676.358 131.512 674.79 133.64C671.094 138.904 667.118 144.784 662.862 151.28C668.574 147.92 673.502 144.224 677.646 140.192C681.79 136.048 685.094 132.184 687.558 128.6C690.022 125.016 691.534 122.048 692.094 119.696C692.654 117.232 692.262 116 690.918 116ZM912.622 23.6C915.422 23.6 917.774 24.384 919.678 25.952C921.694 27.408 923.262 29.312 924.382 31.664C925.614 34.016 926.454 36.592 926.902 39.392C927.462 42.08 927.742 44.656 927.742 47.12C927.742 52.272 926.342 56.752 923.542 60.56C920.854 64.368 917.382 67.504 913.126 69.968C908.87 72.432 904.054 74.28 898.678 75.512C893.414 76.632 888.262 77.192 883.222 77.192C877.51 77.192 871.798 76.632 866.086 75.512C860.486 74.392 855.334 72.824 850.63 70.808C849.622 70.36 848.558 69.912 847.438 69.464C846.43 69.016 845.478 68.568 844.582 68.12L843.742 67.616C832.094 88.448 821.734 107.712 812.662 125.408C808.742 133.024 804.934 140.696 801.238 148.424C797.542 156.04 794.238 163.264 791.326 170.096C788.414 176.816 786.062 182.808 784.27 188.072C782.478 193.448 781.582 197.592 781.582 200.504C781.582 202.744 780.798 203.472 779.23 202.688C777.774 202.016 776.15 200.392 774.358 197.816C772.566 195.24 770.886 191.992 769.318 188.072C767.862 184.264 767.134 180.288 767.134 176.144C767.134 173.12 767.918 169.144 769.486 164.216C771.166 159.176 773.294 153.632 775.87 147.584C778.558 141.424 781.582 134.928 784.942 128.096C788.302 121.264 791.774 114.544 795.358 107.936C803.646 92.368 813.054 75.68 823.582 57.872L822.91 57.536C822.574 57.312 821.062 56.136 818.374 54.008C815.686 51.88 812.214 49.304 807.958 46.28C803.814 43.256 798.998 40.064 793.51 36.704C788.134 33.232 782.534 30.04 776.71 27.128C770.998 24.216 765.23 21.808 759.406 19.904C753.47 18 747.982 17.048 742.942 17.048C737.23 17.048 732.022 17.944 727.318 19.736C722.614 21.416 718.526 23.824 715.054 26.96C711.582 30.096 708.838 33.848 706.822 38.216C704.694 42.584 703.406 47.344 702.958 52.496C702.734 55.296 702.846 57.984 703.294 60.56C703.63 63.024 704.246 65.376 705.142 67.616C705.926 69.856 706.934 71.872 708.166 73.664C709.286 75.456 710.462 77.024 711.694 78.368C713.15 80.048 714.886 81.56 716.902 82.904C718.918 84.136 721.102 85.2 723.454 86.096C725.694 86.992 727.934 87.664 730.174 88.112C732.414 88.56 734.542 88.784 736.558 88.784C739.582 88.784 742.606 88.224 745.63 87.104C748.654 85.872 751.398 84.248 753.862 82.232C756.214 80.216 758.174 77.92 759.742 75.344C761.31 72.656 762.094 69.8 762.094 66.776C762.094 65.544 761.982 64.2 761.758 62.744C761.534 61.176 761.198 59.776 760.75 58.544C760.302 57.2 759.742 56.136 759.07 55.352C758.286 54.456 757.446 54.008 756.55 54.008C755.206 54.008 753.918 54.232 752.686 54.68C751.454 55.016 750.39 55.352 749.494 55.688C748.598 55.912 747.926 55.968 747.478 55.856C746.918 55.632 746.638 54.904 746.638 53.672C746.638 50.872 747.646 48.912 749.662 47.792C751.678 46.56 753.974 45.944 756.55 45.944C760.022 45.944 762.766 46.728 764.782 48.296C766.798 49.752 768.31 51.544 769.318 53.672C770.326 55.688 770.942 57.76 771.166 59.888C771.502 62.016 771.67 63.752 771.67 65.096C771.67 69.016 770.998 73.16 769.654 77.528C768.422 81.896 766.294 85.928 763.27 89.624C760.246 93.32 756.27 96.4 751.342 98.864C746.414 101.216 740.366 102.392 733.198 102.392C728.158 102.392 723.286 101.272 718.582 99.032C713.766 96.68 709.454 93.432 705.646 89.288C701.166 84.36 697.918 78.816 695.902 72.656C693.774 66.496 692.99 60.112 693.55 53.504C694.11 46.896 695.734 40.456 698.422 34.184C701.11 27.8 704.806 22.144 709.51 17.216C714.102 12.176 719.702 8.14399 726.31 5.11999C732.806 2.09599 740.198 0.583994 748.486 0.583994C754.534 0.583994 761.422 2.04 769.15 4.952C776.878 7.864 784.942 11.504 793.342 15.872C801.854 20.128 810.534 24.776 819.382 29.816C828.23 34.856 836.854 39.56 845.254 43.928C853.766 48.184 861.774 51.768 869.278 54.68C876.894 57.592 883.726 59.048 889.774 59.048C892.798 59.048 895.99 58.544 899.35 57.536C902.822 56.416 905.958 54.96 908.758 53.168C911.67 51.264 914.022 49.136 915.814 46.784C917.718 44.32 918.67 41.744 918.67 39.056C918.67 36.816 917.83 34.744 916.15 32.84C914.582 30.936 913.07 29.312 911.614 27.968C910.27 26.624 909.43 25.56 909.094 24.776C908.758 23.992 909.934 23.6 912.622 23.6ZM891.441 158.84C890.209 158.84 889.033 158.616 887.913 158.168C886.905 157.72 886.065 157.216 885.393 156.656C884.721 157.552 884.105 158.28 883.545 158.84C883.321 158.952 883.097 159.176 882.873 159.512C882.649 159.736 882.369 160.016 882.033 160.352C881.809 160.688 881.529 161.08 881.193 161.528C877.161 165.784 872.793 169.536 868.089 172.784C863.385 176.032 858.681 177.992 853.977 178.664C853.865 178.776 853.697 178.832 853.473 178.832C853.025 178.832 852.745 178.888 852.633 179H850.953C849.273 179 847.369 178.72 845.241 178.16C843.225 177.6 841.265 176.592 839.361 175.136C837.569 173.568 836.057 171.44 834.825 168.752C833.593 165.952 832.977 162.312 832.977 157.832C832.977 152.792 833.761 147.752 835.329 142.712C837.009 137.672 839.193 132.856 841.881 128.264C844.681 123.672 847.817 119.36 851.289 115.328C854.873 111.296 858.513 107.824 862.209 104.912C866.017 101.888 869.769 99.536 873.465 97.856C877.161 96.176 880.521 95.336 883.545 95.336C888.249 95.336 892.281 96.68 895.641 99.368C899.001 101.944 901.745 105.024 903.873 108.608C904.209 109.168 903.873 109.896 902.865 110.792C901.857 111.688 899.449 112.136 895.641 112.136C891.049 112.136 886.457 113.648 881.865 116.672C877.273 119.584 873.017 123.28 869.097 127.76C865.177 132.128 861.705 136.888 858.681 142.04C855.769 147.192 853.529 152.008 851.961 156.488C850.393 160.856 849.665 164.552 849.777 167.576C850.001 170.488 851.345 171.944 853.809 171.944C856.273 171.944 859.129 170.936 862.377 168.92C865.625 166.904 868.705 164.608 871.617 162.032C875.089 159.12 878.561 155.816 882.033 152.12C881.697 151.336 881.417 150.384 881.193 149.264C880.969 148.368 880.801 147.304 880.689 146.072C880.577 144.84 880.521 143.44 880.521 141.872C880.521 138.512 881.361 135.656 883.041 133.304C884.833 130.952 886.737 129.44 888.753 128.768C890.881 127.984 892.785 128.208 894.465 129.44C896.257 130.56 897.153 132.856 897.153 136.328C897.153 137.896 896.425 139.968 894.969 142.544C893.513 145.12 891.441 148.2 888.753 151.784C888.977 152.008 889.425 152.288 890.097 152.624C890.881 152.848 891.497 152.96 891.945 152.96C893.961 152.96 895.977 152.232 897.993 150.776C900.009 149.208 902.193 147.024 904.545 144.224C906.897 141.312 909.417 137.84 912.105 133.808C914.905 129.664 917.985 125.016 921.345 119.864C921.905 118.968 922.577 118.408 923.361 118.184C924.257 117.848 924.985 117.848 925.545 118.184C926.105 118.52 926.385 119.136 926.385 120.032C926.497 120.928 926.105 122.048 925.209 123.392C924.649 124.288 923.753 125.8 922.521 127.928C921.401 129.944 919.945 132.24 918.153 134.816C916.473 137.392 914.569 140.136 912.441 143.048C910.313 145.848 908.073 148.424 905.721 150.776C903.481 153.128 901.129 155.088 898.665 156.656C896.201 158.112 893.793 158.84 891.441 158.84Z" fill="white"/>
</svg>
